<svg width="40" height="41" viewBox="0 0 40 41" fill="none" xmlns="http://www.w3.org/2000/svg">
<path fill-rule="evenodd" clip-rule="evenodd" d="M20.8802 10.9835C15.279 10.9835 10.7383 15.3929 10.7383 20.832H8.00781C8.00781 13.9285 13.771 8.33203 20.8802 8.33203C27.9893 8.33203 33.7525 13.9285 33.7525 20.832C33.7525 27.7356 27.9893 33.332 20.8802 33.332C17.875 33.332 15.1069 32.3304 12.9161 30.653L14.6066 28.5708C16.333 29.8926 18.5099 30.6805 20.8802 30.6805C26.4813 30.6805 31.022 26.2712 31.022 20.832C31.022 15.3929 26.4813 10.9835 20.8802 10.9835Z" fill="#F5F5F5"/>
<path d="M12.8812 20.2637H6.25L9.66312 25.8508L12.8812 20.2637Z" fill="#F5F5F5"/>
<path d="M25.7585 22.886C25.7585 18.4612 18.133 20.6452 18.133 18.4328C18.133 17.7663 18.867 17.2841 20.3352 17.2841C22.0281 17.2841 22.7622 17.9223 23.0768 19.0852L25.5188 18.2201C25.1892 16.7735 23.9457 15.7524 21.7435 15.4688V13.2563H19.4064V15.4404C17.279 15.6673 15.5861 16.6601 15.5861 18.5888C15.5861 23.0136 23.1967 20.8296 23.1967 23.042C23.1967 23.7086 22.4626 24.1908 20.8146 24.1908C18.9869 24.1908 17.9831 23.5384 17.6535 22.3045L15.2266 23.1696C15.5562 24.7155 16.8446 25.765 19.4064 26.0202V28.2185H21.7435V26.0486C24.0356 25.8359 25.7585 24.8431 25.7585 22.886Z" fill="#F5F5F5"/>
</svg>
