<svg width="40" height="41" viewBox="0 0 40 41" fill="none" xmlns="http://www.w3.org/2000/svg">
<path fill-rule="evenodd" clip-rule="evenodd" d="M2.5 19.4351L12.2788 19.4351L12.2788 22.069L2.5 22.069L2.5 19.4351Z" fill="#F5F5F5"/>
<path fill-rule="evenodd" clip-rule="evenodd" d="M14.0318 13.8643L14.0318 16.4982L6.75781 16.4982L6.75781 13.8643L14.0318 13.8643Z" fill="#F5F5F5"/>
<path fill-rule="evenodd" clip-rule="evenodd" d="M12.7623 25.0886L12.7623 27.7225L5.48828 27.7225L5.48828 25.0886L12.7623 25.0886Z" fill="#F5F5F5"/>
<path fill-rule="evenodd" clip-rule="evenodd" d="M26.9855 8.33203L37.4982 14.7561V27.0025L26.9856 33.332L16.7266 26.9926V14.766L26.9855 8.33203ZM27.002 11.3886L19.2317 16.2618V25.4855L27.0019 30.287L34.993 25.4756V16.2717L27.002 11.3886Z" fill="#F5F5F5"/>
<path fill-rule="evenodd" clip-rule="evenodd" d="M18.1034 14.3945L27.1163 19.5062L36.2054 14.3965L37.3866 16.7192L27.1111 22.4959L16.9141 16.7127L18.1034 14.3945Z" fill="#F5F5F5"/>
<path fill-rule="evenodd" clip-rule="evenodd" d="M28.4032 19.6841L28.4032 32.2949L25.8984 32.2949L25.8984 19.6841L28.4032 19.6841Z" fill="#F5F5F5"/>
</svg>
