<svg width="368" height="411" viewBox="0 0 368 411" fill="none" xmlns="http://www.w3.org/2000/svg">
<path d="M130.708 74.7612H184.256C185.699 74.7612 186.18 75.0712 186.156 76.5732V97.6342C186.156 99.1622 185.703 99.4172 184.288 99.4172H102.109C100.383 99.4172 99.9867 99.8172 100.016 101.517V151.565C100.016 153.093 100.271 153.665 101.967 153.631H126.012C136.99 153.421 147.857 155.85 157.702 160.711C167.547 165.573 176.081 172.727 182.588 181.571C184.088 183.524 184.059 183.497 185.417 181.571C191.005 173.944 198.109 167.553 206.283 162.799C214.456 158.045 223.524 155.03 232.917 153.943C235.838 153.607 238.777 153.456 241.717 153.49H266.13C267.573 153.49 267.94 153.207 267.94 151.707V76.8842C267.94 75.2422 268.223 74.6762 270.005 74.7052H291.048C292.264 74.7052 292.575 75.0162 292.575 76.2612V176.554C292.575 177.828 292.207 178.082 291.019 178.082C274.726 178.167 258.375 178.167 242.081 178.167C232.189 177.776 222.459 180.771 214.501 186.659C199.677 198.18 193.426 213.467 197.528 231.952C201.63 250.437 213.765 262.1 232.379 266.516C235.56 267.167 238.806 267.451 242.053 267.364H291.019C292.405 267.364 292.745 267.705 292.745 269.092V290.492C292.745 291.54 292.745 292.02 291.358 292.02C273.876 292.02 256.366 292.275 238.858 291.82C229.06 291.656 219.419 289.336 210.619 285.026C201.819 280.716 194.076 274.521 187.94 266.881C186.807 265.698 185.767 264.43 184.828 263.088C184.064 261.927 183.641 262.239 182.99 263.088C179.152 268.459 174.538 273.229 169.298 277.242C157.033 286.807 141.88 291.918 126.328 291.736H77.0177C75.7437 291.736 75.3477 291.481 75.3477 290.122V268.722C75.3477 267.392 75.6597 267.08 76.9887 267.08H126.489C137.08 267.328 147.388 263.65 155.431 256.754C168.585 245.431 174.131 230.823 170.594 213.669C167.057 196.515 156.139 184.992 138.968 179.669C134.646 178.505 130.174 178 125.702 178.169H77.2717C75.7717 178.169 75.4607 177.769 75.4887 176.329V76.5732C75.4887 75.0162 75.9697 74.7892 77.3567 74.7892C95.1393 74.7892 112.923 74.7798 130.708 74.7612Z" fill="white"/>
<path d="M167.507 351.848C168.886 348.53 170.378 345.268 171.64 341.978C173.306 337.993 174.999 334.015 176.607 330.03C176.701 329.633 176.936 329.285 177.27 329.05C177.603 328.816 178.011 328.711 178.416 328.757H207.125C209.817 328.677 212.487 329.266 214.896 330.47C217.306 331.674 219.38 333.456 220.933 335.657C222.92 338.693 223.726 342.353 223.196 345.943C222.667 349.533 220.84 352.805 218.061 355.139C216.081 356.699 216.024 356.929 217.461 359.064L223.835 368.619C223.435 369.165 222.916 368.938 222.514 368.938H211.2C210.704 368.98 210.207 368.874 209.772 368.632C209.337 368.39 208.984 368.024 208.76 367.58C207.152 365.041 205.46 362.58 203.793 360.08C203.325 359.49 202.696 359.051 201.982 358.814C201.268 358.578 200.501 358.556 199.775 358.75C199.116 359.012 199.288 359.502 199.288 359.962V367.35C199.288 368.332 199.288 368.878 197.967 368.85H187.574C186.574 368.85 186.453 368.591 186.827 367.723C189.354 361.955 191.827 355.892 194.321 350.003C194.485 349.551 194.794 349.166 195.198 348.906C195.602 348.646 196.08 348.526 196.56 348.564H204.825C205.5 348.63 206.182 348.542 206.817 348.304C207.453 348.066 208.026 347.686 208.492 347.192C208.957 346.698 209.304 346.105 209.504 345.456C209.705 344.808 209.754 344.122 209.648 343.452C209.679 342.935 209.607 342.417 209.435 341.929C209.263 341.441 208.996 340.992 208.648 340.609C208.301 340.226 207.88 339.918 207.411 339.703C206.942 339.488 206.434 339.371 205.919 339.358C199.519 339.184 193.144 339.358 186.742 339.209C185.742 339.209 185.681 340.049 185.421 340.652C181.748 349.31 178.072 357.971 174.484 366.632C173.796 368.273 173.049 369.054 171.125 368.94C167.911 368.71 164.666 368.94 161.45 368.94C161.045 368.993 160.634 368.896 160.296 368.668C159.957 368.439 159.714 368.094 159.613 367.699C154.446 355.265 149.231 342.835 143.968 330.409C143.368 328.934 143.739 328.709 145.144 328.76H156.081C156.623 328.68 157.176 328.805 157.632 329.11C158.088 329.414 158.415 329.877 158.55 330.409C161.161 337.103 163.889 343.771 166.559 350.437C166.761 350.895 166.818 351.473 167.507 351.848Z" fill="#ED145B"/>
<path d="M125.211 409.804C124.144 409.804 123.567 409.656 123.217 409.292C122.867 408.928 122.744 408.353 122.779 407.292V389.947C122.779 388.686 122.998 388.086 124.252 388.086C124.344 388.086 124.446 388.086 124.552 388.096C127.8 388.096 130.866 388.096 133.986 388.296H134.147C135.646 388.307 137.096 388.827 138.26 389.77C139.425 390.712 140.235 392.023 140.558 393.486C141.027 395.002 140.956 396.633 140.357 398.103C139.758 399.572 138.668 400.788 137.273 401.544C136.847 401.808 136.648 402.013 136.605 402.228C136.557 402.464 136.699 402.722 136.941 403.064C137.467 403.839 137.981 404.608 138.522 405.415L138.66 405.621L138.722 405.712C139.572 406.982 140.449 408.296 141.444 409.741H136.817C136.477 409.742 136.145 409.642 135.863 409.453C135.581 409.264 135.362 408.995 135.234 408.68L134.807 408.033L134.595 407.712C133.744 406.412 132.866 405.078 131.949 403.892C131.814 403.588 131.599 403.326 131.327 403.134C131.055 402.942 130.736 402.827 130.404 402.801L130.304 402.795C129.779 402.764 129.364 402.739 129.023 402.739C128.274 402.739 127.949 402.87 127.783 403.239C127.599 403.957 127.539 404.701 127.605 405.439C127.559 406.055 127.559 406.674 127.605 407.291C127.703 407.609 127.732 407.944 127.689 408.275C127.647 408.605 127.534 408.922 127.359 409.205C127.011 409.626 126.368 409.804 125.211 409.804ZM128.579 392.486C128.432 392.47 128.284 392.49 128.147 392.544C128.009 392.597 127.887 392.683 127.789 392.794C127.699 392.971 127.648 393.166 127.64 393.365C127.633 393.564 127.668 393.762 127.744 393.946C127.85 394.568 127.826 395.205 127.673 395.817C127.473 396.986 127.273 398.096 128.63 398.602C129.38 398.802 130.154 398.903 130.93 398.902C131.936 398.902 132.935 398.733 133.885 398.402C134.558 398.244 135.148 397.842 135.543 397.275C135.937 396.708 136.108 396.015 136.022 395.329C136.024 394.631 135.76 393.959 135.284 393.45C134.808 392.94 134.155 392.632 133.459 392.587C133.051 392.553 132.638 392.536 132.226 392.536C131.814 392.536 131.399 392.553 130.991 392.587V392.486C130.602 392.513 130.224 392.524 129.875 392.524C129.504 392.524 129.13 392.511 128.759 392.486C128.697 392.486 128.637 392.486 128.579 392.486Z" fill="white"/>
<path d="M189.183 409.837C188.535 409.837 188.183 409.748 187.975 409.531C187.856 409.368 187.771 409.182 187.725 408.986C187.678 408.789 187.671 408.586 187.704 408.386V389.581C187.704 388.777 187.704 388.196 188.76 388.196H188.852C192.085 388.196 195.428 388.196 198.911 388.396C198.977 388.396 199.044 388.396 199.111 388.396C200.578 388.398 202.002 388.891 203.157 389.796C204.312 390.702 205.131 391.967 205.484 393.391C206.012 394.934 205.972 396.614 205.369 398.129C204.767 399.644 203.642 400.893 202.199 401.651C201.786 401.902 201.584 402.111 201.54 402.329C201.491 402.584 201.658 402.839 201.904 403.171C202.342 403.771 203.352 405.271 204.104 406.471L206.439 409.771H202.166C202.097 409.778 202.028 409.781 201.966 409.781C201.59 409.779 201.222 409.672 200.904 409.473C200.586 409.273 200.33 408.988 200.166 408.65C199.163 406.98 198.064 405.369 196.877 403.824C196.729 403.535 196.504 403.292 196.226 403.123C195.948 402.954 195.629 402.865 195.304 402.867H195.262H194.767H194.352C193.411 402.867 192.941 402.905 192.708 403.255C192.453 403.978 192.372 404.75 192.471 405.51V406.538C192.471 409.837 192.471 409.837 189.183 409.837ZM193.588 392.523C193.425 392.503 193.259 392.52 193.104 392.572C192.948 392.624 192.806 392.71 192.688 392.823C192.595 392.998 192.539 393.191 192.525 393.389C192.51 393.587 192.537 393.785 192.604 393.972C192.639 394.127 192.659 394.284 192.666 394.442C192.739 394.974 192.708 395.515 192.574 396.035C192.374 397.152 192.182 398.207 193.621 398.601C194.368 398.779 195.133 398.868 195.901 398.868C196.912 398.869 197.917 398.713 198.881 398.405C199.539 398.223 200.115 397.82 200.511 397.264C200.908 396.708 201.101 396.033 201.059 395.351C201.016 394.669 200.741 394.023 200.278 393.52C199.816 393.018 199.194 392.689 198.519 392.59C198.077 392.556 197.629 392.539 197.185 392.539C196.741 392.539 196.295 392.556 195.853 392.59V392.523H193.588Z" fill="white"/>
<path d="M149.369 398.904V389.821C149.369 388.66 149.369 388.1 150.881 388.128H164.226C166.133 388.128 165.673 389.321 165.673 390.308C165.673 391.295 166.133 392.561 164.226 392.492H156.011C153.843 392.325 154.237 393.62 154.172 394.907C154.107 396.194 154.172 397.086 155.912 396.924H163.076C165.444 396.924 164.261 398.243 164.261 399.03C164.261 399.817 164.951 401.246 163.076 401.185C161.201 401.124 158.805 401.185 156.701 401.185C154.597 401.185 154.006 401.51 154.101 403.685C154.196 405.86 154.529 405.901 156.239 405.804H164.456C166.263 405.804 165.869 406.924 165.77 407.858C165.671 408.792 166.592 410.164 164.521 410.131H150.784C149.502 410.131 149.339 409.603 149.371 408.544L149.369 398.904Z" fill="white"/>
<path d="M214.423 398.805V389.519C214.423 388.427 214.75 388.127 215.836 388.127H229.374C231.183 388.127 230.759 389.259 230.727 390.181C230.695 391.103 231.381 392.491 229.374 392.426C226.58 392.426 223.754 392.588 220.965 392.426C218.865 392.264 219.257 393.526 219.257 394.743C219.257 395.96 218.926 397.048 220.868 396.85C222.81 396.652 225.531 396.85 227.868 396.85C228.853 396.85 229.281 397.05 229.281 398.21C229.281 401.084 229.281 401.084 226.552 401.084H220.8C219.484 401.084 219.189 401.484 219.222 402.703C219.222 405.646 219.222 405.646 222.084 405.646H229.476C231.943 405.646 230.76 407.002 230.76 407.89C230.76 408.778 231.446 410.005 229.545 409.972H216.003C214.65 409.972 214.392 409.509 214.424 408.324L214.423 398.805Z" fill="white"/>
<path d="M113.672 395.827C113.672 398.007 113.835 400.227 113.672 402.439C113.593 403.576 113.282 404.685 112.759 405.698C112.235 406.71 111.51 407.605 110.628 408.328C109.75 409.05 108.732 409.583 107.639 409.892C106.545 410.202 105.399 410.282 104.272 410.128C103.161 410.254 102.035 410.146 100.968 409.812C99.9001 409.478 98.914 408.925 98.0725 408.188C97.2263 407.452 96.541 406.55 96.0592 405.537C95.5775 404.525 95.3096 403.424 95.2725 402.303C95.0725 397.976 95.2725 393.642 95.2725 389.319C95.2725 388.357 95.6345 388.061 96.4885 388.158C96.7599 388.211 97.039 388.211 97.3105 388.158C99.3485 387.825 100.136 388.523 100.005 390.739C99.7755 394.039 100.005 397.339 100.005 400.646C99.8909 401.544 100.036 402.456 100.424 403.274C100.813 404.092 101.427 404.782 102.195 405.261C102.961 405.737 103.849 405.983 104.751 405.967C105.653 405.951 106.531 405.675 107.279 405.172C108.03 404.666 108.619 403.955 108.979 403.124C109.338 402.293 109.452 401.377 109.306 400.484V389.98C109.306 388.56 109.635 388.101 111.115 388.129C114.007 388.129 114.007 388.129 114.007 391.104V395.861L113.672 395.827Z" fill="white"/>
<path d="M61.932 396.225C62.0486 398.744 61.9163 401.269 61.537 403.762C61.0056 405.865 59.685 407.683 57.8491 408.838C56.0133 409.994 53.8031 410.398 51.677 409.968C49.5948 410.091 47.5485 409.385 45.9846 408.005C44.4207 406.625 43.4661 404.682 43.329 402.601C42.836 398.141 43.329 393.647 43.129 389.187C43.129 388.424 43.359 387.998 44.181 388.099H44.812C47.868 388.099 47.868 388.099 47.868 391.038V400.75C47.7934 401.542 47.9263 402.339 48.2538 403.064C48.5813 403.789 49.0919 404.416 49.7355 404.883C50.379 405.351 51.1332 405.642 51.9238 405.73C52.7144 405.817 53.514 405.697 54.244 405.381C55.1855 405.014 55.9763 404.341 56.4889 403.471C57.0015 402.6 57.2062 401.582 57.07 400.581V389.845C57.07 388.364 57.53 387.998 58.91 388.063C61.835 388.063 61.835 388.063 61.835 391.006L61.932 396.225Z" fill="white"/>
<path d="M239.238 409.882C238.825 409.937 238.407 409.838 238.062 409.605C237.633 409.105 237.825 408.916 238.03 408.719C238.11 408.653 238.178 408.573 238.23 408.484C239.608 405.141 241.03 401.816 242.398 398.6L242.46 398.457C243.629 395.714 245.086 392.301 246.444 389.021C246.534 388.699 246.732 388.418 247.006 388.225C247.279 388.032 247.611 387.94 247.944 387.964C248.137 387.964 248.344 387.983 248.525 388C248.672 388.013 248.825 388.027 248.968 388.033H249.019C249.204 388.033 249.404 388.013 249.597 387.994C249.79 387.975 249.987 387.956 250.181 387.956C250.523 387.935 250.862 388.033 251.139 388.234C251.417 388.434 251.617 388.725 251.704 389.056C252.834 391.828 254.016 394.587 255.161 397.256L255.261 397.482C256.799 401.062 258.387 404.764 259.861 408.52C260.071 409.144 260.11 409.534 259.985 409.713C259.955 409.752 259.915 409.783 259.869 409.803C259.824 409.823 259.774 409.831 259.725 409.827C259.435 409.79 259.154 409.699 258.897 409.56L258.842 409.535C258.624 409.417 258.387 409.337 258.142 409.297C258.115 409.294 258.089 409.298 258.064 409.307C258.038 409.316 258.016 409.331 257.997 409.35C257.974 409.382 257.958 409.419 257.95 409.459C257.943 409.498 257.944 409.538 257.953 409.577C257.529 409.723 257.084 409.802 256.635 409.812C256.363 409.828 256.09 409.784 255.836 409.682C255.583 409.58 255.355 409.424 255.169 409.224C254.816 408.768 254.638 408.2 254.669 407.624C254.646 407.151 254.512 406.689 254.279 406.277C254.046 405.864 253.72 405.511 253.327 405.247C252.832 404.914 252.248 404.736 251.651 404.736C251.303 404.736 250.957 404.797 250.63 404.916C250.022 405.03 249.398 405.03 248.79 404.916C248.279 404.835 247.763 404.792 247.246 404.788C244.746 404.788 243.381 406.016 242.936 408.651C242.926 409.317 240.661 409.882 239.238 409.882ZM248.874 393.847C248.429 394.826 247.959 395.892 247.528 397.047C246.714 399.016 246.267 400.098 246.604 400.602C246.798 400.894 247.258 401.013 248.194 401.013C248.759 401.013 249.455 400.974 250.453 400.913C250.919 400.878 251.287 400.834 251.419 400.613C251.519 400.444 251.488 400.173 251.309 399.761C250.652 398.255 250.034 396.722 249.38 395.099L249.332 394.98L248.874 393.847Z" fill="white"/>
<path d="M19.0389 398.805V389.519C19.0389 388.427 19.3679 388.127 20.4189 388.127H34.2189C35.2049 388.127 35.4349 388.464 35.4679 389.422C35.4679 392.722 35.4679 392.722 32.5759 392.722H25.6129C24.1009 392.722 23.8049 393.181 23.8379 394.569C23.8379 397.28 23.8379 397.28 26.5659 397.28H32.7129C34.7509 397.28 34.1589 398.465 34.1259 399.46C34.0929 400.455 34.6849 401.741 32.7459 401.607H25.1519C24.1329 401.607 23.8369 401.907 23.8699 402.898V408.049C23.8699 409.904 23.3439 410.229 21.7989 410.038C21.5271 409.989 21.2488 409.989 20.9769 410.038C19.5309 410.265 18.9389 409.77 19.0049 408.151C19.2039 404.884 19.0389 401.845 19.0389 398.805Z" fill="white"/>
<path d="M313.368 388.165H320.93C322.044 388.165 322.307 388.498 322.307 389.549C322.307 392.589 322.307 392.589 319.319 392.589C315.702 392.589 315.702 392.589 315.702 396.189V408.122C315.702 409.543 315.302 410.005 313.991 409.806C313.589 409.741 313.178 409.741 312.776 409.806C311.395 410.006 310.903 409.506 310.935 408.024V394.444C310.935 392.825 310.475 392.362 308.997 392.561C308.384 392.609 307.769 392.609 307.156 392.561C304.298 392.561 303.87 391.729 304.298 388.924C304.498 387.966 305.117 388.165 305.679 388.165H313.368Z" fill="white"/>
<path d="M78.4694 388.162H85.8314C86.9164 388.162 87.3764 388.362 87.4104 389.615C87.4104 392.586 87.4104 392.586 84.5174 392.586C80.9354 392.586 80.9354 392.586 80.9354 396.223V407.949C80.9354 409.341 80.6354 410.039 79.1614 409.804C78.8248 409.739 78.479 409.739 78.1424 409.804C76.5984 410.04 76.0054 409.54 76.0724 407.823V394.243C76.0724 392.883 75.7104 392.388 74.3624 392.559C73.6839 392.608 73.0028 392.608 72.3244 392.559C69.3994 392.559 69.0384 391.897 69.4324 388.959C69.6324 388.025 70.1884 388.159 70.7794 388.159L78.4694 388.162Z" fill="white"/>
<path d="M338.651 396.849C340.096 394.442 341.477 392.324 342.66 390.249C342.91 389.546 343.41 388.959 344.064 388.6C344.718 388.241 345.481 388.135 346.209 388.301C347.084 388.366 347.962 388.366 348.837 388.301C349.002 389.226 348.312 389.722 347.953 390.31C346.962 391.998 345.864 393.62 344.667 395.168C343.117 396.935 341.967 399.017 341.297 401.27C340.627 403.524 340.453 405.895 340.786 408.222C341.016 409.569 340.491 409.967 339.143 409.906C335.465 409.906 335.857 410.306 336.151 406.898C336.472 403.21 335.38 399.537 333.096 396.622C331.191 394.081 329.81 391.269 327.836 388.298H332.442C333.754 388.298 333.686 388.923 334.081 389.548L338.651 396.849Z" fill="white"/>
<path d="M268.039 398.809V389.75C268.039 388.5 268.339 387.932 269.618 388.13C270.162 388.216 270.717 388.216 271.261 388.13C272.444 388.13 272.775 388.467 272.775 389.624V403.866C272.775 405.116 273.07 405.514 274.349 405.449H281.943C283.191 405.449 283.55 405.774 283.517 407.032C283.517 409.808 283.517 409.845 280.659 409.845H269.581C268.435 409.845 268.108 409.512 268.108 408.356C268.108 405.116 268.039 401.974 268.039 398.809Z" fill="white"/>
<path d="M296.245 399.069V408.355C296.245 409.548 296.011 410.173 294.695 409.946C294.151 409.873 293.599 409.873 293.056 409.946C291.74 410.173 291.477 409.577 291.477 408.355V389.751C291.477 388.566 291.739 387.933 293.056 388.132C293.326 388.184 293.605 388.184 293.876 388.132C295.652 387.872 296.407 388.404 296.246 390.385C296.079 393.253 296.245 396.167 296.245 399.069Z" fill="white"/>
<path d="M136.516 368H50C43.4324 368.005 36.9282 366.716 30.8595 364.205C24.7908 361.694 19.2767 358.011 14.6327 353.367C9.98865 348.723 6.30588 343.209 3.79506 337.141C1.28423 331.072 -0.00537524 324.568 1.68392e-05 318V50C-0.00537524 43.4324 1.28423 36.9282 3.79506 30.8595C6.30588 24.7908 9.98865 19.2767 14.6327 14.6327C19.2767 9.98865 24.7908 6.30588 30.8595 3.79506C36.9282 1.28423 43.4324 -0.00537524 50 1.68392e-05H318C324.568 -0.00537524 331.072 1.28423 337.141 3.79506C343.209 6.30588 348.723 9.98865 353.367 14.6327C358.011 19.2767 361.694 24.7908 364.205 30.8595C366.716 36.9282 368.005 43.4324 368 50V318C368.005 324.568 366.716 331.072 364.205 337.141C361.694 343.209 358.011 348.723 353.367 353.367C348.723 358.011 343.209 361.694 337.141 364.205C331.072 366.716 324.568 368.005 318 368H231.484V343H307C316.544 342.989 325.695 339.193 332.444 332.444C339.193 325.695 342.989 316.544 343 307V61C342.989 51.4556 339.193 42.3051 332.444 35.5562C325.695 28.8072 316.544 25.0109 307 25H61C51.4556 25.0109 42.3051 28.8072 35.5562 35.5562C28.8072 42.3051 25.0109 51.4556 25 61V307C25.0109 316.544 28.8072 325.695 35.5562 332.444C42.3051 339.193 51.4556 342.989 61 343H136.515V368H136.516Z" fill="white"/>
</svg>
