     <svg
              xmlns="http://www.w3.org/2000/svg"
              width="28"
              height="22"
              fill="none"
              color="#8c8c8e"
            >
              <path
                d="M23.441 1.931A22.91 22.91 0 0 0 17.734.188c-.25.448-.526 1.021-.726 1.495a20.76 20.76 0 0 0-6.333 0A13.64 13.64 0 0 0 9.924.188a21.68 21.68 0 0 0-5.707 1.769C.613 7.312-.363 12.519.112 17.675c2.128 1.569 4.48 2.765 7.009 3.512.576-.772 1.076-1.569 1.502-2.416A13.57 13.57 0 0 1 6.27 17.65c.2-.149.375-.299.576-.448a16.43 16.43 0 0 0 14.017 0c.2.149.375.299.576.448-.751.448-1.552.822-2.378 1.121.425.847.926 1.644 1.502 2.416 2.528-.772 4.906-1.943 7.009-3.512.551-5.979-1.001-11.16-4.13-15.744zM9.223 14.486c-1.377 0-2.478-1.245-2.478-2.765s1.101-2.79 2.478-2.79c1.402 0 2.503 1.246 2.503 2.79-.025 1.52-1.101 2.765-2.503 2.765zm9.211 0c-1.377 0-2.478-1.245-2.478-2.765s1.101-2.79 2.478-2.79c1.402 0 2.503 1.246 2.478 2.79s-1.101 2.765-2.478 2.765z"
                fill="currentColor"
              ></path>
            </svg>