   <svg
              xmlns="http://www.w3.org/2000/svg"
              width="28"
              height="22"
              fill="none"   color="#8c8c8e"
            >
              <path
                fillRule="evenodd"
                d="M.406 7.309h4.108V21.02H.406V7.309zM2.434.351c.659 0 1.291.26 1.757.724s.728 1.092.728 1.747-.262 1.284-.728 1.747-1.098.724-1.757.724C1.064 5.292 0 4.183 0 2.822S1.064.351 2.434.351zm4.514 6.958h4.057v1.916c.43-.637 1.011-1.159 1.693-1.52s1.441-.549 2.213-.548h1.116c2.587 0 4.666 2.118 4.666 4.639v9.227h-4.057v-1.261-6.151c-.05-1.563-1.116-2.774-2.688-2.774s-2.891 1.21-2.942 2.774v7.412H6.949L6.948 7.309z"
                fill="currentColor"
              ></path>
            </svg>