 <svg
              xmlns="http://www.w3.org/2000/svg"
              width="28"
              height="22"
              fill="none"   color="#8c8c8e"
            >
              <path
                fillRule="evenodd"
                d="M17.073 5.249c-.992-.134-1.847-.674-2.568-1.483-.856-.944-1.352-2.202-1.307-3.415H9.64v14.156c0 1.663-1.351 3.011-3.063 3.011-.991 0-1.892-.494-2.478-1.258a3.03 3.03 0 0 1-.199-3.126 3.04 3.04 0 0 1 1.11-1.19 3.05 3.05 0 0 1 1.566-.448c.306-.003.61.043.901.135V8.036a5.45 5.45 0 0 0-.901-.09h-.135A6.58 6.58 0 0 0 2.89 9.068a6.55 6.55 0 0 0-2.368 2.869 6.54 6.54 0 0 0-.423 3.692c.219 1.245.795 2.402 1.658 3.328a6.7 6.7 0 0 0 2.198 1.524 6.71 6.71 0 0 0 2.621.544c3.649 0 6.622-2.921 6.622-6.516v-7.37a6.57 6.57 0 0 0 4.908 1.662v-3.55a2.01 2.01 0 0 1-1.033 0z"
                fill="currentColor"
              ></path>
            </svg>