<svg
              xmlns="http://www.w3.org/2000/svg"
              width="28"
              height="22"
              fill="none"   color="#8c8c8e"
            >
              <path
                fillRule="evenodd"
                d="M12.478 6.711c-1.007-5.334 5.367-8.508 9.123-4.662 0 0 1.678-.473 3.154-1.418-.432 1.226-1.259 2.271-2.348 2.97 0 0 2.012-.27 2.885-.81 0 0-.873 1.823-2.482 2.499C23.681 17.511 10.599 24.938 0 18.861c0 0 5.233.27 7.448-2.296 0 0-3.22.27-4.83-3.646 0 0 1.208.473 2.415-.135 0 0-3.757-.608-4.087-5.131 0 0 1.207.945 2.549.607 0 0-4.159-2.498-1.811-7.022 0 0 4.428 5.668 10.801 5.47l-.006.004z"
                fill="currentColor"
              ></path>
            </svg>