<svg width="40" height="41" viewBox="0 0 40 41" fill="none" xmlns="http://www.w3.org/2000/svg">
<path fill-rule="evenodd" clip-rule="evenodd" d="M29.9013 24.8647V26.2873C29.9013 26.313 29.9013 26.3386 29.9013 26.3644C29.9014 27.2136 29.9016 28.1345 29.7454 28.9647C29.5742 29.8744 29.1999 30.7795 28.3829 31.5192C27.5977 32.23 26.5356 32.6668 25.2235 32.9365C23.9074 33.207 22.224 33.3323 20.0814 33.3323H18.6641V30.4871H20.0814C22.1401 30.4871 23.6077 30.3643 24.6547 30.1491C25.7058 29.9331 26.2192 29.6464 26.4843 29.4064C26.7176 29.1952 26.8685 28.9221 26.9599 28.4366C27.0615 27.8966 27.0665 27.2361 27.0665 26.2873V24.8647H29.9013Z" fill="#F5F5F5"/>
<path d="M12.3175 27.2881V19.8927C10.4018 19.6955 6.57031 20.0998 6.57031 23.2946C6.57031 26.4894 10.4018 27.2881 12.3175 27.2881Z" fill="#F5F5F5"/>
<path fill-rule="evenodd" clip-rule="evenodd" d="M9.13301 22.1864C8.93462 22.4332 8.7855 22.772 8.7855 23.2945C8.7855 24.2495 9.30759 24.8847 10.2385 25.3505C10.7823 25.6226 11.4071 25.7986 11.9972 25.9008V21.1347C11.3746 21.1681 10.7083 21.2786 10.1396 21.5046C9.67961 21.6874 9.34677 21.9205 9.13301 22.1864ZM9.20628 19.1384C10.6554 18.5626 12.3138 18.5156 13.3943 18.6268C14.0409 18.6934 14.5327 19.2401 14.5327 19.8926V27.288C14.5327 27.9907 13.9651 28.5604 13.2649 28.5604C12.1779 28.5604 10.5319 28.3408 9.10738 27.6281C7.64363 26.8958 6.25 25.5342 6.25 23.2945C6.25 22.2195 6.57981 21.3098 7.15969 20.5884C7.72419 19.8861 8.46893 19.4314 9.20628 19.1384Z" fill="#F5F5F5"/>
<path d="M26.7333 19.8928L26.7333 27.2882C28.649 27.4854 32.4805 27.0811 32.4805 23.8863C32.4805 20.6915 28.649 19.8928 26.7333 19.8928Z" fill="#F5F5F5"/>
<path fill-rule="evenodd" clip-rule="evenodd" d="M30.867 24.994C31.0654 24.7472 31.2145 24.4084 31.2145 23.8859C31.2145 22.9309 30.6924 22.2957 29.7615 21.8299C29.2177 21.5579 28.5929 21.3818 28.0028 21.2797L28.0028 26.0458C28.6254 26.0123 29.2917 25.9018 29.8604 25.6758C30.3204 25.493 30.6532 25.26 30.867 24.994ZM30.7937 28.042C29.3446 28.6178 27.6862 28.6648 26.6057 28.5536C25.9591 28.487 25.4673 27.9403 25.4673 27.2878L25.4673 19.8924C25.4673 19.1897 26.0349 18.62 26.7351 18.62C27.8221 18.62 29.4681 18.8396 30.8926 19.5523C32.3564 20.2847 33.75 21.6462 33.75 23.8859C33.75 24.9609 33.4202 25.8706 32.8403 26.592C32.2758 27.2943 31.5311 27.749 30.7937 28.042Z" fill="#F5F5F5"/>
<path fill-rule="evenodd" clip-rule="evenodd" d="M14.5909 13.0906C13.2376 14.3403 12.2683 16.2702 12.2683 19.015C12.2683 19.8007 11.6337 20.4376 10.851 20.4376C10.0682 20.4376 9.43359 19.8007 9.43359 19.015C9.43359 15.5399 10.6885 12.828 12.6715 10.9968C14.6323 9.18609 17.2145 8.31893 19.7551 8.33218C22.2953 8.34543 24.8712 9.23902 26.8258 11.0508C28.8026 12.8832 30.0618 15.5799 30.0618 19.015C30.0618 19.8007 29.4272 20.4376 28.6444 20.4376C27.8617 20.4376 27.2271 19.8007 27.2271 19.015C27.2271 16.323 26.2621 14.4012 24.9026 13.141C23.5209 11.8603 21.6484 11.1873 19.7403 11.1773C17.8325 11.1674 15.9664 11.8204 14.5909 13.0906Z" fill="#F5F5F5"/>
</svg>
